<?xml version="1.0" ?><svg viewBox="0 0 64 64" xmlns="http://www.w3.org/2000/svg"><defs><style>.cls-1{fill:#eaeaea;}.cls-2{fill:#a9ba5a;}.cls-2,.cls-3,.cls-5,.cls-6,.cls-7{stroke:#4c241d;stroke-linecap:round;stroke-linejoin:round;stroke-width:2px;}.cls-3{fill:none;}.cls-4{fill:#4c241d;}.cls-5{fill:#ffded5;}.cls-6{fill:#ffce56;}.cls-7{fill:#fff;}</style></defs><g id="cooker"><circle class="cls-1" cx="40" cy="38" r="21"/><rect class="cls-2" height="18" width="40" x="16" y="13"/><path class="cls-3" d="M44,28h4a5,5,0,0,1,5-5V19"/><circle class="cls-4" cx="52" cy="27" r="1"/><polyline class="cls-3" points="33 25 39 25 39 22 33 22 33 19 39 19"/><line class="cls-3" x1="36" x2="36" y1="27" y2="17"/><circle class="cls-4" cx="41.5" cy="56" r="1.1324"/><line class="cls-3" x1="49.5858" x2="52.4142" y1="49.0858" y2="51.9142"/><line class="cls-3" x1="52.4142" x2="49.5858" y1="49.0858" y2="51.9142"/><circle class="cls-3" cx="45" cy="42" r="2"/><path class="cls-5" d="M25,42a11.4339,11.4339,0,0,0,4-5.11A17.3417,17.3417,0,0,1,30.2038,34l2.5665.0377a50.2768,50.2768,0,0,1-1.6258,6.1652"/><path class="cls-5" d="M16,56l3-5V34.9057a.6528.6528,0,0,1,.8592-.6193l.5619.1873A2.3091,2.3091,0,0,1,22,36.6643V39a3.0088,3.0088,0,0,0,3,3h1a11.4355,11.4355,0,0,0,7-3l6.1364-4.3831A3.3119,3.3119,0,0,1,41.0613,34H43S27,49,27,56Z"/><path class="cls-6" d="M46.8511,13.3756a21.1763,21.1763,0,0,0-38.07,14.7781,21.8907,21.8907,0,0,0,.3682,2.4922Z"/><rect class="cls-6" height="3" width="49" x="5" y="31"/><circle class="cls-6" cx="18.0541" cy="5.7918" r="2"/><path class="cls-3" d="M32.0726,8.176c.6225-.0557,4.073.8119,7.6567,3.3037"/><rect class="cls-7" height="5" width="13" x="15" y="56"/><circle class="cls-4" cx="24.3829" cy="58.3776" r="1.0691"/></g></svg>